# File created by Blade
# Date/Time:  Mon Sep 22 17:38:34 2014
# Frame Rate: 120.000 fps
#------------------------------------------------------
:FULLY-SPECIFIED
:DEGREES
2386
root 0.616714 37.084288 6.115313 -11.501887 19.514889 8.704252
RightUpLeg 22.060604 -13.466378 -3.083131
RightLeg -4.518217 -0.000000 0.000000
RightFoot -15.578087 -22.699868 11.020167
RightToeBase 9.314352 -0.000000 -0.000000
LeftUpLeg -32.711696 42.189937 9.631962
LeftLeg 85.801988 -0.000000 -0.000000
LeftFoot 21.536535 23.393408 -39.107598
LeftToeBase -6.615749 -0.000000 0.000000
Spine 23.726212 -0.069230 9.652843
RightShoulder 4.309918 -15.962474 -19.514579
RightArm 46.331181 -5.581556 53.786885
RightForeArm 7.818060 -0.000000 93.050602
RightHand 4.117910 -0.000000 -29.059938
RightHandThumb1 -24.326973 -0.000000 -32.862282
LeftShoulder -25.567769 40.387865 -14.961006
LeftArm 29.586853 -0.189855 -76.060705
LeftForeArm 22.027845 0.000000 41.813322
LeftHand -30.478207 -0.000000 18.417940
LeftHandThumb1 -26.253704 0.000000 33.147579
Head 15.239187 0.867318 -10.589974
2387
root 0.619168 37.076391 6.120972 -11.384835 19.523986 8.693225
RightUpLeg 21.998276 -13.327943 -2.987479
RightLeg -4.643200 -0.000000 0.000000
RightFoot -15.471685 -22.908003 10.843906
RightToeBase 9.117228 -0.000000 -0.000000
LeftUpLeg -31.962235 41.551629 10.168627
LeftLeg 85.184840 -0.000000 -0.000000
LeftFoot 21.564662 23.456701 -39.203482
LeftToeBase -6.508017 -0.000000 0.000000
Spine 23.443596 -0.221720 9.626139
RightShoulder 4.377404 -15.976739 -19.514884
RightArm 46.544686 -5.717331 53.653839
RightForeArm 7.783381 -0.000000 92.840557
RightHand 4.103079 -0.000000 -28.918666
RightHandThumb1 -24.326973 -0.000000 -32.862282
LeftShoulder -25.474277 40.260381 -14.924718
LeftArm 29.741145 0.183821 -75.667326
LeftForeArm 22.310350 -0.000000 42.805178
LeftHand -29.486079 -0.000000 19.196752
LeftHandThumb1 -26.253704 0.000000 33.147579
Head 15.351870 1.235234 -10.691837
2388
root 0.612452 37.063468 6.124469 -11.256143 19.541521 8.607461
RightUpLeg 21.882191 -13.162747 -2.781756
RightLeg -4.758997 -0.000000 0.000000
RightFoot -15.379798 -23.147956 10.685107
RightToeBase 8.920671 -0.000000 -0.000000
LeftUpLeg -31.287245 40.778811 10.762774
LeftLeg 84.645704 -0.000000 -0.000000
LeftFoot 21.476002 23.598033 -39.293863
LeftToeBase -6.505203 -0.000000 0.000000
Spine 23.145727 -0.346152 9.679766
RightShoulder 4.337262 -15.960587 -19.501236
RightArm 46.784097 -5.923231 53.494040
RightForeArm 7.722713 -0.000000 92.608668
RightHand 4.089996 -0.000000 -28.795427
RightHandThumb1 -24.326973 -0.000000 -32.862282
LeftShoulder -25.323925 40.099608 -14.814512
LeftArm 29.923774 0.559133 -75.297142
LeftForeArm 23.059098 -0.000000 43.920053
LeftHand -30.109604 -0.000000 18.860750
LeftHandThumb1 -26.253704 0.000000 33.147579
Head 15.368821 1.537012 -10.776594
2389
root 0.606031 37.049589 6.128415 -11.110654 19.555993 8.511188
RightUpLeg 21.749997 -12.948096 -2.549850
RightLeg -4.877787 -0.000000 0.000000
RightFoot -15.306879 -23.340612 10.592660
RightToeBase 8.620344 -0.000000 -0.000000
LeftUpLeg -30.625457 39.890041 11.394060
LeftLeg 84.159277 -0.000000 -0.000000
LeftFoot 21.427447 23.785409 -39.425259
LeftToeBase -6.860417 -0.000000 0.000000
Spine 22.811385 -0.473538 9.732279
RightShoulder 4.293008 -15.966066 -19.501436
RightArm 47.060701 -6.139914 53.309510
RightForeArm 7.660469 -0.000000 92.348123
RightHand 4.006838 -0.000000 -28.609883
RightHandThumb1 -24.326973 -0.000000 -32.862282
LeftShoulder -25.181943 39.987944 -14.709353
LeftArm 30.126946 0.848113 -74.975006
LeftForeArm 23.646812 0.000000 44.995379
LeftHand -30.123140 0.000000 18.747909
LeftHandThumb1 -26.253704 0.000000 33.147579
Head 15.404873 1.876034 -10.843969
